<?xml version="1.0" standalone="no"?>
<!DOCTYPE svg PUBLIC "-//W3C//DTD SVG 20010904//EN"
 "http://www.w3.org/TR/2001/REC-SVG-20010904/DTD/svg10.dtd">
<svg version="1.0" xmlns="http://www.w3.org/2000/svg"
 width="421.000000pt" height="421.000000pt" viewBox="0 0 421.000000 421.000000"
 preserveAspectRatio="xMidYMid meet">

<g transform="translate(0.000000,421.000000) scale(0.100000,-0.100000)"
fill="#ebb4c9" stroke="none">
<path d="M1897 4200 c-823 -87 -1523 -645 -1783 -1424 -221 -665 -104 -1383
317 -1938 79 -104 250 -281 349 -361 307 -248 685 -408 1080 -457 109 -13 381
-13 490 0 395 49 773 209 1080 457 99 80 270 257 349 361 510 673 567 1584
146 2317 -313 545 -850 917 -1475 1024 -144 25 -415 35 -553 21z m568 -209
c522 -108 958 -403 1249 -848 529 -807 355 -1908 -398 -2517 -784 -635 -1900
-567 -2592 156 -838 877 -669 2283 354 2942 99 64 317 168 430 205 221 72 360
91 637 86 172 -3 242 -8 320 -24z"/>
<path d="M1068 3160 c-149 -31 -230 -91 -264 -194 -36 -108 -45 -85 389 -1042
218 -480 407 -897 422 -929 41 -85 133 -178 219 -220 184 -91 464 -83 612 18
97 66 134 147 88 198 -44 49 -112 44 -153 -12 -68 -92 -319 -116 -460 -44
-105 53 -100 44 -543 1024 -225 495 -408 912 -408 925 0 40 39 75 100 91 136
36 319 27 417 -21 58 -28 102 -75 134 -144 36 -75 201 -486 419 -1045 174
-443 214 -537 246 -574 118 -136 338 -110 419 50 14 26 178 387 366 801 368
813 368 811 339 913 -15 55 -86 137 -141 166 -68 34 -174 52 -324 52 -156 1
-231 -14 -319 -61 -63 -34 -149 -118 -177 -175 -42 -81 -299 -738 -299 -763 0
-36 51 -84 88 -84 61 0 72 20 222 396 88 220 155 372 174 398 19 25 55 53 91
71 58 30 60 30 219 30 102 0 177 -5 205 -13 51 -16 91 -55 91 -90 0 -22 -680
-1540 -704 -1571 -34 -43 -104 -31 -129 22 -8 18 -92 230 -187 472 -238 611
-416 1049 -453 1120 -42 78 -123 157 -200 195 -120 58 -333 75 -499 40z"/>
</g>
</svg>
